<?xml version="1.0" ?><!DOCTYPE svg  PUBLIC '-//W3C//DTD SVG 1.1//EN'  'http://www.w3.org/Graphics/SVG/1.1/DTD/svg11.dtd'><svg enable-background="new 0 0 24 24" height="24px" id="Layer_1" version="1.1" viewBox="0 0 24 24" width="24px" xml:space="preserve" xmlns="http://www.w3.org/2000/svg" xmlns:xlink="http://www.w3.org/1999/xlink"><g id="icon"><circle cx="12" cy="12" fill="#F36748" r="11"/><path d="M17.5407,10.5H13.5V6.4593c0,-0.2296,-0.139,-0.4593,-0.3687,-0.4593h-2.2627C10.639,6,10.5,6.2297,10.5,6.4593V10.5H6.4593c-0.2296,0,-0.4593,0.139,-0.4593,0.3687v2.2627c0,0.2296,0.2297,0.3687,0.4593,0.3687H10.5v4.0407c0,0.2296,0.139,0.4593,0.3687,0.4593h2.2627c0.2296,0,0.3687,-0.2297,0.3687,-0.4593V13.5h4.0407c0.2296,0,0.4593,-0.139,0.4593,-0.3687v-2.2627C18,10.639,17.7703,10.5,17.5407,10.5z" fill="#FFFFFF"/><path d="M4.2218,19.7782C6.2124,21.7688,8.9624,23,12,23c6.0751,0,11,-4.9249,11,-11c0,-3.0376,-1.2312,-5.7876,-3.2218,-7.7782L4.2218,19.7782z" fill="#231F20" opacity="0.1"/></g></svg>